<svg width="400" height="400" viewBox="0 0 400 400" fill="none" xmlns="http://www.w3.org/2000/svg">
  <path d="M200 40 C120 40 100 120 80 200 C60 240 40 260 60 250 C80 240 100 240 100 240 C90 320 80 360 110 340 C130 320 150 320 170 340 C190 360 210 320 230 340 C250 360 270 320 290 340 C320 360 310 320 300 240 C300 240 320 240 340 250 C360 260 340 240 320 200 C300 120 280 40 200 40 Z" fill="#F8FAFC" stroke="#0F172A" stroke-width="8" stroke-linejoin="round"/>
  <ellipse cx="150" cy="140" rx="20" ry="35" fill="#0F172A"/>
  <ellipse cx="250" cy="140" rx="20" ry="35" fill="#0F172A"/>
  <ellipse cx="200" cy="220" rx="15" ry="25" fill="#0F172A"/>
</svg>
